<svg xmlns="http://www.w3.org/2000/svg" viewBox="-8 -8 92 100" fill="none">
  <path d="M31.8066 9.01953C32.4665 9.01955 33.0165 9.23976 33.5664 9.67969C34.1163 10.2296 34.4462 10.9997 34.4463 11.7695H34.5566V82.2715C34.5565 83.1513 33.8964 83.8115 33.0166 83.8115H17.8389C16.959 83.8115 16.2989 83.1513 16.2988 82.2715V41.9053H2.5498C0.240288 41.905 -0.859698 39.1556 0.790039 37.5059L16.2988 22.7676L30.0469 9.67969C30.4868 9.23987 31.1469 9.01958 31.8066 9.01953Z M60.4033 0C61.2831 4.57832e-05 61.9433 0.660236 61.9434 1.54004V41.9053H75.6914C78.001 41.9053 79.1008 44.6549 77.4512 46.3047H77.3418L61.833 61.043L48.085 74.1318C47.645 74.5717 46.9851 74.792 46.3252 74.792C45.6653 74.792 45.1153 74.5717 44.5654 74.1318C44.0155 73.5819 43.6855 72.8119 43.6855 72.042V1.54004C43.6856 0.660206 44.3457 0 45.2256 0H60.4033Z" fill="#000000"/>
</svg>