<svg width="285" height="84" viewBox="0 0 285 84" fill="none" xmlns="http://www.w3.org/2000/svg">
<path d="M31.8066 9.01953C32.4665 9.01955 33.0165 9.23976 33.5664 9.67969C34.1163 10.2296 34.4462 10.9997 34.4463 11.7695H34.5566V82.2715C34.5565 83.1513 33.8964 83.8115 33.0166 83.8115H17.8389C16.959 83.8115 16.2989 83.1513 16.2988 82.2715V41.9053H2.5498C0.240288 41.905 -0.859698 39.1556 0.790039 37.5059L16.2988 22.7676L30.0469 9.67969C30.4868 9.23987 31.1469 9.01958 31.8066 9.01953ZM60.4033 0C61.2831 4.57832e-05 61.9433 0.660236 61.9434 1.54004V41.9053H75.6914C78.001 41.9053 79.1008 44.6549 77.4512 46.3047H77.3418L61.833 61.043L48.085 74.1318C47.645 74.5717 46.9851 74.792 46.3252 74.792C45.6653 74.792 45.1153 74.5717 44.5654 74.1318C44.0155 73.5819 43.6855 72.8119 43.6855 72.042V1.54004C43.6856 0.660206 44.3457 0 45.2256 0H60.4033ZM270.921 26.8379C276.53 26.8381 281.039 28.7075 284.559 32.5566L279.39 38.9365C278.18 37.7267 276.859 36.8468 275.43 36.2969C274 35.7471 272.46 35.4171 270.921 35.417C269.382 35.417 268.721 35.6365 267.951 36.0762C267.181 36.5161 266.851 37.1768 266.851 38.0566C266.851 38.9363 267.181 39.376 267.841 39.9258C268.501 40.3657 269.491 40.9159 270.811 41.4658L274.44 43.0059C277.85 44.3256 280.489 45.8654 282.249 47.625C284.119 49.2748 284.999 51.5852 284.999 54.5547C284.999 57.5238 284.669 58.1843 283.899 59.7236C283.13 61.2633 282.139 62.474 280.819 63.4639C279.5 64.4536 277.959 65.2235 276.09 65.7734C274.33 66.3233 272.35 66.5429 270.37 66.543C266.961 66.5429 263.991 65.8832 261.241 64.5635C258.492 63.2436 256.402 61.4835 254.643 59.1738L259.812 52.9043C261.351 54.444 263.001 55.7646 264.761 56.6445C266.52 57.5243 268.391 57.9638 270.37 57.9639C272.35 57.9638 272.79 57.7442 273.78 57.1943C274.77 56.6444 275.21 55.8741 275.21 54.7744C275.21 53.675 274.88 53.2348 274.11 52.7949C273.45 52.355 272.46 51.8052 271.25 51.3652L267.181 49.7148C265.531 49.055 264.101 48.3948 262.781 47.625C261.462 46.9652 260.472 46.0858 259.592 45.2061C258.712 44.3262 258.052 43.2258 257.612 42.126C257.172 41.0261 256.842 39.7058 256.842 38.166C256.842 36.6263 257.172 34.7568 257.832 33.3271C258.492 31.8976 259.482 30.7974 260.691 29.8076C261.901 28.8179 263.441 28.1573 265.091 27.6074C266.741 27.0576 268.611 26.8379 270.591 26.8379H270.921ZM122.107 14.2988C126.177 14.2989 129.586 15.1791 132.336 17.0488C135.196 18.8086 137.285 21.1185 138.825 23.8682L131.786 29.2578C130.576 27.3881 129.146 25.9577 127.606 24.9678C126.067 23.978 124.197 23.4278 122.107 23.4277C120.018 23.4277 118.918 23.8681 117.708 24.6377C116.498 25.4076 115.838 26.6182 115.838 28.3779C115.838 30.1374 116.388 31.0173 117.378 31.7871C118.368 32.5569 119.798 33.3272 121.777 34.207L127.496 36.7363C131.455 38.4961 134.536 40.4761 136.735 42.6758C138.935 44.8755 139.925 47.8458 139.925 51.3652C139.925 54.8843 139.485 55.7647 138.605 57.7441C137.726 59.6138 136.405 61.2638 134.865 62.4736C133.326 63.7933 131.455 64.7835 129.256 65.4434C127.166 66.1032 124.857 66.4336 122.327 66.4336C117.928 66.4336 113.968 65.4432 110.668 63.3535C107.369 61.2638 104.729 58.6242 102.859 55.2148L110.009 49.8252C110.669 50.815 111.438 51.6954 112.208 52.5752C112.978 53.455 113.968 54.2249 114.958 54.8848C115.948 55.5446 117.048 56.0943 118.258 56.5342C119.468 56.974 120.897 57.1943 122.327 57.1943C124.527 57.1943 126.287 56.7544 127.606 55.7646C128.816 54.7749 129.476 53.4547 129.477 51.6953C129.477 49.9357 128.926 48.8353 127.826 48.0654C126.726 47.2956 125.076 46.4156 123.097 45.4258L117.708 43.0059C115.948 42.236 114.298 41.3561 112.758 40.3662C111.218 39.3764 110.008 38.3865 108.908 37.1768C107.808 35.967 107.039 34.7569 106.379 33.3271C105.719 31.8973 105.499 30.2471 105.499 28.4873C105.499 26.7275 105.939 24.3075 106.818 22.5479C107.698 20.7882 108.799 19.2489 110.339 18.0391C111.769 16.8293 113.529 15.8386 115.618 15.1787C117.708 14.519 119.797 14.1895 122.217 14.1895L122.107 14.2988ZM224.836 49.8252C224.836 52.0247 225.496 53.7847 226.926 55.1045C228.245 56.424 230.005 57.0839 231.984 57.084C233.964 57.0839 235.614 56.4241 237.044 55.1045C238.364 53.7848 239.134 52.0246 239.134 49.8252V27.8271H249.363V48.9453H249.253C249.253 51.6947 248.812 54.1145 247.933 56.2041C247.053 58.4035 245.843 60.1635 244.304 61.7031C242.764 63.2429 240.893 64.4527 238.804 65.2227C236.714 65.9925 234.404 66.4326 231.984 66.4326C229.565 66.4326 227.145 65.9925 225.056 65.2227C222.966 64.4528 221.096 63.2429 219.557 61.7031C218.017 60.1633 216.807 58.2938 215.927 56.2041C215.047 54.0045 214.606 51.5848 214.606 48.9453V27.8271H224.836V49.8252ZM163.902 26.9473C166.542 26.9473 168.852 27.3872 170.941 28.377C173.031 29.3668 174.681 30.6867 176.001 32.4463V27.8271H185.46V65.5527H175.892V61.1533C174.572 62.803 172.922 64.123 170.832 65.0029C168.742 65.8828 166.432 66.3232 163.902 66.3232C161.373 66.3232 158.843 65.773 156.533 64.7832C154.334 63.7934 152.354 62.3635 150.704 60.7139C149.054 58.9541 147.844 56.864 146.854 54.4443C145.975 52.0247 145.534 49.385 145.534 46.5254C145.534 43.6659 145.975 41.026 146.854 38.6064C147.734 36.1869 149.054 34.0966 150.594 32.3369C152.243 30.5773 154.114 29.2574 156.313 28.2676C158.513 27.2778 161.043 26.7275 163.683 26.7275L163.902 26.9473ZM205.368 65.5527H195.029V8.24902H205.368V65.5527ZM165.662 36.1865C164.343 36.1866 163.132 36.4063 161.923 36.9561C160.713 37.396 159.723 38.1661 158.843 39.0459C157.963 39.9257 157.303 41.026 156.753 42.3457C156.203 43.6653 155.983 45.0952 155.983 46.6348C155.983 48.1744 156.203 49.7145 156.753 51.0342C157.303 52.354 157.963 53.3447 158.843 54.2246C159.723 55.1045 160.713 55.7645 161.923 56.3145C163.132 56.7543 164.343 57.0839 165.662 57.084C166.982 57.0839 167.972 56.8637 169.182 56.4238C170.281 55.9839 171.382 55.4344 172.262 54.5547C173.142 53.6749 173.911 52.684 174.461 51.3643C175.011 50.0445 175.341 48.5044 175.341 46.6348C175.341 44.7652 175.011 43.3353 174.461 42.0156C173.911 40.6959 173.142 39.5957 172.262 38.7158C171.382 37.836 170.391 37.1767 169.182 36.8467C167.972 36.5168 166.872 36.1866 165.662 36.1865Z" fill="white"/>
</svg>
